<mxfile host="drawio-plugin" modified="2022-01-06T10:14:18.595Z" agent="5.0 (Macintosh; Intel Mac OS X 10_14_6) AppleWebKit/537.36 (KHTML, like Gecko) Chrome/89.0.4389.114 Safari/537.36" etag="p-vaxgaCwPNTCUFC3rCg" version="15.5.4" type="embed" pages="5"><diagram id="KUnR1pUKcfkr-RDepORW" name="1. connexion"><mxGraphModel dx="1375" dy="766" grid="1" gridSize="10" guides="1" tooltips="1" connect="1" arrows="1" fold="1" page="1" pageScale="1" pageWidth="827" pageHeight="1169" math="0" shadow="0"><root><mxCell id="0"/><mxCell id="1" parent="0"/><mxCell id="ZBbE1sinww5m6HYyCcib-1" value="" style="group" parent="1" vertex="1" connectable="0"><mxGeometry x="345" y="67" width="310" height="453" as="geometry"/></mxCell><mxCell id="THIoc8QtqhNPpxG0_Eg2-5" value="" style="shape=folder;fontStyle=1;spacingTop=10;tabWidth=111;tabHeight=24;tabPosition=left;html=1;align=left;verticalAlign=top;" parent="ZBbE1sinww5m6HYyCcib-1" vertex="1"><mxGeometry y="3" width="310" height="450" as="geometry"/></mxCell><mxCell id="THIoc8QtqhNPpxG0_Eg2-6" value="Connexion" style="text;html=1;strokeColor=none;fillColor=none;align=center;verticalAlign=middle;whiteSpace=wrap;rounded=0;fontFamily=Open Sans;fontSource=https%3A%2F%2Ffonts.googleapis.com%2Fcss%3Ffamily%3DOpen%2BSans;fontSize=14;" parent="ZBbE1sinww5m6HYyCcib-1" vertex="1"><mxGeometry x="13" width="60" height="30" as="geometry"/></mxCell><mxCell id="uh43iIKea6PYvybPLhX6-2" value="Se connecter" style="ellipse;whiteSpace=wrap;html=1;fontFamily=Open Sans;verticalAlign=middle;fontSource=https%3A%2F%2Ffonts.googleapis.com%2Fcss%3Ffamily%3DOpen%2BSans;fillColor=#fff2cc;strokeColor=#d6b656;" vertex="1" parent="ZBbE1sinww5m6HYyCcib-1"><mxGeometry x="51.25" y="83" width="90" height="60" as="geometry"/></mxCell><mxCell id="uh43iIKea6PYvybPLhX6-4" value="mot de passe&lt;br&gt;oublié ?" style="ellipse;whiteSpace=wrap;html=1;fontFamily=Open Sans;verticalAlign=middle;fontSource=https%3A%2F%2Ffonts.googleapis.com%2Fcss%3Ffamily%3DOpen%2BSans;fillColor=#d5e8d4;strokeColor=#82b366;" vertex="1" parent="ZBbE1sinww5m6HYyCcib-1"><mxGeometry x="51.25" y="203" width="90" height="60" as="geometry"/></mxCell><mxCell id="ocIMHgacVOPdlzD6zdJN-1" style="edgeStyle=orthogonalEdgeStyle;rounded=0;orthogonalLoop=1;jettySize=auto;html=1;fontFamily=Open Sans;fontSource=https%3A%2F%2Ffonts.googleapis.com%2Fcss%3Ffamily%3DOpen%2BSans;fontSize=14;dashed=1;entryX=0;entryY=0.5;entryDx=0;entryDy=0;exitX=0.5;exitY=1;exitDx=0;exitDy=0;" edge="1" parent="ZBbE1sinww5m6HYyCcib-1" source="uh43iIKea6PYvybPLhX6-2" target="uh43iIKea6PYvybPLhX6-4"><mxGeometry relative="1" as="geometry"><mxPoint x="143.75" y="-37" as="sourcePoint"/><mxPoint x="373.75" y="-37" as="targetPoint"/></mxGeometry></mxCell><mxCell id="uh43iIKea6PYvybPLhX6-5" value="Créer nouveau compte" style="ellipse;whiteSpace=wrap;html=1;fontFamily=Open Sans;verticalAlign=middle;fontSource=https%3A%2F%2Ffonts.googleapis.com%2Fcss%3Ffamily%3DOpen%2BSans;fillColor=#fff2cc;strokeColor=#d6b656;" vertex="1" parent="ZBbE1sinww5m6HYyCcib-1"><mxGeometry x="206.25" y="313" width="90" height="60" as="geometry"/></mxCell><mxCell id="uh43iIKea6PYvybPLhX6-7" value="Modifier&lt;br&gt;mot de passe" style="ellipse;whiteSpace=wrap;html=1;fontFamily=Open Sans;verticalAlign=middle;fontSource=https%3A%2F%2Ffonts.googleapis.com%2Fcss%3Ffamily%3DOpen%2BSans;fillColor=#fff2cc;strokeColor=#d6b656;" vertex="1" parent="ZBbE1sinww5m6HYyCcib-1"><mxGeometry x="206.25" y="203" width="90" height="60" as="geometry"/></mxCell><mxCell id="ocIMHgacVOPdlzD6zdJN-5" style="edgeStyle=orthogonalEdgeStyle;rounded=0;orthogonalLoop=1;jettySize=auto;html=1;entryX=0;entryY=0.5;entryDx=0;entryDy=0;" edge="1" parent="ZBbE1sinww5m6HYyCcib-1" source="ocIMHgacVOPdlzD6zdJN-2" target="uh43iIKea6PYvybPLhX6-5"><mxGeometry relative="1" as="geometry"/></mxCell><mxCell id="ocIMHgacVOPdlzD6zdJN-2" value="création de compte" style="ellipse;whiteSpace=wrap;html=1;fontFamily=Open Sans;verticalAlign=middle;fontSource=https%3A%2F%2Ffonts.googleapis.com%2Fcss%3Ffamily%3DOpen%2BSans;fillColor=#d5e8d4;strokeColor=#82b366;" vertex="1" parent="ZBbE1sinww5m6HYyCcib-1"><mxGeometry x="51.25" y="313" width="90" height="60" as="geometry"/></mxCell><mxCell id="ocIMHgacVOPdlzD6zdJN-4" style="edgeStyle=orthogonalEdgeStyle;rounded=0;orthogonalLoop=1;jettySize=auto;html=1;fontFamily=Open Sans;fontSource=https%3A%2F%2Ffonts.googleapis.com%2Fcss%3Ffamily%3DOpen%2BSans;fontSize=14;dashed=1;entryX=0;entryY=0.5;entryDx=0;entryDy=0;exitX=0.5;exitY=1;exitDx=0;exitDy=0;" edge="1" parent="ZBbE1sinww5m6HYyCcib-1" source="uh43iIKea6PYvybPLhX6-2" target="ocIMHgacVOPdlzD6zdJN-2"><mxGeometry relative="1" as="geometry"><mxPoint x="106.25" y="153" as="sourcePoint"/><mxPoint x="61.25" y="243" as="targetPoint"/><Array as="points"><mxPoint x="96.75" y="173"/><mxPoint x="13.75" y="173"/><mxPoint x="13.75" y="343"/></Array></mxGeometry></mxCell><mxCell id="uh43iIKea6PYvybPLhX6-3" style="edgeStyle=orthogonalEdgeStyle;rounded=0;orthogonalLoop=1;jettySize=auto;html=1;entryX=0;entryY=0.5;entryDx=0;entryDy=0;fontFamily=Open Sans;fontSource=https%3A%2F%2Ffonts.googleapis.com%2Fcss%3Ffamily%3DOpen%2BSans;fontSize=14;" edge="1" parent="ZBbE1sinww5m6HYyCcib-1" source="uh43iIKea6PYvybPLhX6-4" target="uh43iIKea6PYvybPLhX6-7"><mxGeometry relative="1" as="geometry"/></mxCell><mxCell id="TYDmkTxunngjgZpNK9Lh-3" value="Élève / Tuteur" style="shape=umlActor;verticalLabelPosition=bottom;verticalAlign=top;html=1;outlineConnect=0;fontFamily=Open Sans;fontSource=https%3A%2F%2Ffonts.googleapis.com%2Fcss%3Ffamily%3DOpen%2BSans;" parent="1" vertex="1"><mxGeometry x="110" y="260" width="70" height="140" as="geometry"/></mxCell><mxCell id="S27ae6sOTBXnJJOsuptz-1" value="" style="endArrow=classic;html=1;rounded=0;fontFamily=Open Sans;fontSource=https%3A%2F%2Ffonts.googleapis.com%2Fcss%3Ffamily%3DOpen%2BSans;fontSize=13;dashed=1;" edge="1" parent="1"><mxGeometry width="50" height="50" relative="1" as="geometry"><mxPoint x="280" y="719.5" as="sourcePoint"/><mxPoint x="380" y="719.5" as="targetPoint"/></mxGeometry></mxCell><mxCell id="S27ae6sOTBXnJJOsuptz-2" value="lien, redirection" style="text;html=1;strokeColor=none;fillColor=none;align=center;verticalAlign=middle;whiteSpace=wrap;rounded=0;fontFamily=Open Sans;fontSource=https%3A%2F%2Ffonts.googleapis.com%2Fcss%3Ffamily%3DOpen%2BSans;fontSize=14;" vertex="1" parent="1"><mxGeometry x="300" y="679.5" width="60" height="30" as="geometry"/></mxCell><mxCell id="S27ae6sOTBXnJJOsuptz-3" value="Cas d'usage" style="ellipse;whiteSpace=wrap;html=1;fontFamily=Open Sans;verticalAlign=middle;fontSource=https%3A%2F%2Ffonts.googleapis.com%2Fcss%3Ffamily%3DOpen%2BSans;fillColor=#fff2cc;strokeColor=#d6b656;" vertex="1" parent="1"><mxGeometry x="450" y="670" width="90" height="60" as="geometry"/></mxCell><mxCell id="S27ae6sOTBXnJJOsuptz-4" value="zone/page" style="ellipse;whiteSpace=wrap;html=1;fontFamily=Open Sans;verticalAlign=middle;fontSource=https%3A%2F%2Ffonts.googleapis.com%2Fcss%3Ffamily%3DOpen%2BSans;fillColor=#d5e8d4;strokeColor=#82b366;" vertex="1" parent="1"><mxGeometry x="610" y="670" width="90" height="60" as="geometry"/></mxCell><mxCell id="S27ae6sOTBXnJJOsuptz-5" value="&lt;u style=&quot;font-size: 18px;&quot;&gt;Légende&lt;/u&gt; :" style="text;html=1;align=center;verticalAlign=middle;resizable=0;points=[];autosize=1;strokeColor=none;fillColor=none;fontSize=18;" vertex="1" parent="1"><mxGeometry x="95" y="660" width="100" height="30" as="geometry"/></mxCell><mxCell id="UVYaXJV1hf5EVzLLOGzE-1" value="" style="endArrow=classic;html=1;rounded=0;fontSize=18;entryX=0;entryY=0.5;entryDx=0;entryDy=0;exitX=1;exitY=0.3333333333333333;exitDx=0;exitDy=0;exitPerimeter=0;" edge="1" parent="1" source="TYDmkTxunngjgZpNK9Lh-3" target="uh43iIKea6PYvybPLhX6-2"><mxGeometry width="50" height="50" relative="1" as="geometry"><mxPoint x="620" y="440" as="sourcePoint"/><mxPoint x="670" y="390" as="targetPoint"/></mxGeometry></mxCell></root></mxGraphModel></diagram><diagram id="M9xIVLAOQFdfFHR1ENn9" name="2. tableau de bord"><mxGraphModel dx="1375" dy="766" grid="1" gridSize="10" guides="1" tooltips="1" connect="1" arrows="1" fold="1" page="1" pageScale="1" pageWidth="827" pageHeight="1169" math="0" shadow="0"><root><mxCell id="1OBQYQIUP6oZaAc2y_LA-0"/><mxCell id="1OBQYQIUP6oZaAc2y_LA-1" parent="1OBQYQIUP6oZaAc2y_LA-0"/><mxCell id="WQVlLFC1r0coPAHuCt4i-0" value="" style="group" parent="1OBQYQIUP6oZaAc2y_LA-1" vertex="1" connectable="0"><mxGeometry x="310" y="30" width="360" height="530" as="geometry"/></mxCell><mxCell id="WQVlLFC1r0coPAHuCt4i-1" value="" style="shape=folder;fontStyle=1;spacingTop=10;tabWidth=111;tabHeight=24;tabPosition=left;html=1;align=left;verticalAlign=top;" parent="WQVlLFC1r0coPAHuCt4i-0" vertex="1"><mxGeometry y="1.7599337748344368" width="360" height="526.4900662251656" as="geometry"/></mxCell><mxCell id="WQVlLFC1r0coPAHuCt4i-2" value="&lt;font style=&quot;font-size: 13px&quot;&gt;Tabelau de bord&lt;/font&gt;" style="text;html=1;strokeColor=none;fillColor=none;align=center;verticalAlign=middle;whiteSpace=wrap;rounded=0;fontFamily=Open Sans;fontSource=https%3A%2F%2Ffonts.googleapis.com%2Fcss%3Ffamily%3DOpen%2BSans;fontSize=14;" parent="WQVlLFC1r0coPAHuCt4i-0" vertex="1"><mxGeometry width="110" height="35.1" as="geometry"/></mxCell><mxCell id="WQVlLFC1r0coPAHuCt4i-4" value="Consulter&lt;br&gt;tâches" style="ellipse;whiteSpace=wrap;html=1;fontFamily=Open Sans;verticalAlign=middle;fontSource=https%3A%2F%2Ffonts.googleapis.com%2Fcss%3Ffamily%3DOpen%2BSans;fillColor=#fff2cc;strokeColor=#d6b656;" parent="WQVlLFC1r0coPAHuCt4i-0" vertex="1"><mxGeometry x="70" y="150" width="90" height="60" as="geometry"/></mxCell><mxCell id="O8qXiJtw2eGrAZmjT_0R-7" value="Consulter&lt;br&gt;évènements" style="ellipse;whiteSpace=wrap;html=1;fontFamily=Open Sans;verticalAlign=middle;fontSource=https%3A%2F%2Ffonts.googleapis.com%2Fcss%3Ffamily%3DOpen%2BSans;fillColor=#fff2cc;strokeColor=#d6b656;" parent="WQVlLFC1r0coPAHuCt4i-0" vertex="1"><mxGeometry x="70" y="260" width="90" height="60" as="geometry"/></mxCell><mxCell id="O8qXiJtw2eGrAZmjT_0R-8" value="Consulter&lt;br&gt;Messages&lt;br&gt;non lus" style="ellipse;whiteSpace=wrap;html=1;fontFamily=Open Sans;verticalAlign=middle;fontSource=https%3A%2F%2Ffonts.googleapis.com%2Fcss%3Ffamily%3DOpen%2BSans;fillColor=#fff2cc;strokeColor=#d6b656;" parent="WQVlLFC1r0coPAHuCt4i-0" vertex="1"><mxGeometry x="70" y="370" width="90" height="60" as="geometry"/></mxCell><mxCell id="ixfkal_lUHKr-x1qklB_-9" style="edgeStyle=orthogonalEdgeStyle;rounded=0;orthogonalLoop=1;jettySize=auto;html=1;fontFamily=Open Sans;fontSource=https%3A%2F%2Ffonts.googleapis.com%2Fcss%3Ffamily%3DOpen%2BSans;fontSize=17;" parent="1OBQYQIUP6oZaAc2y_LA-1" edge="1"><mxGeometry relative="1" as="geometry"><mxPoint x="470" y="428" as="sourcePoint"/></mxGeometry></mxCell><mxCell id="X8_WFffuxxabjsE24lAA-3" value="" style="endArrow=classic;html=1;rounded=0;fontFamily=Open Sans;fontSource=https%3A%2F%2Ffonts.googleapis.com%2Fcss%3Ffamily%3DOpen%2BSans;fontSize=13;entryX=0;entryY=0.5;entryDx=0;entryDy=0;exitX=1;exitY=0.3333333333333333;exitDx=0;exitDy=0;exitPerimeter=0;" parent="1OBQYQIUP6oZaAc2y_LA-1" source="mzEIMfMMCoD7IkeZDwDo-0" target="WQVlLFC1r0coPAHuCt4i-4" edge="1"><mxGeometry width="50" height="50" relative="1" as="geometry"><mxPoint x="200" y="170" as="sourcePoint"/><mxPoint x="320" y="370" as="targetPoint"/></mxGeometry></mxCell><mxCell id="mzEIMfMMCoD7IkeZDwDo-0" value="Élève / Tuteur" style="shape=umlActor;verticalLabelPosition=bottom;verticalAlign=top;html=1;outlineConnect=0;fontFamily=Open Sans;fontSource=https%3A%2F%2Ffonts.googleapis.com%2Fcss%3Ffamily%3DOpen%2BSans;" parent="1OBQYQIUP6oZaAc2y_LA-1" vertex="1"><mxGeometry x="110" y="260" width="70" height="140" as="geometry"/></mxCell><mxCell id="mzEIMfMMCoD7IkeZDwDo-1" value="" style="endArrow=classic;html=1;rounded=0;fontFamily=Open Sans;fontSource=https%3A%2F%2Ffonts.googleapis.com%2Fcss%3Ffamily%3DOpen%2BSans;fontSize=13;exitX=1;exitY=0.3333333333333333;exitDx=0;exitDy=0;exitPerimeter=0;" parent="1OBQYQIUP6oZaAc2y_LA-1" source="mzEIMfMMCoD7IkeZDwDo-0" target="O8qXiJtw2eGrAZmjT_0R-7" edge="1"><mxGeometry width="50" height="50" relative="1" as="geometry"><mxPoint x="190" y="316.66666666666674" as="sourcePoint"/><mxPoint x="370" y="220" as="targetPoint"/></mxGeometry></mxCell><mxCell id="mzEIMfMMCoD7IkeZDwDo-2" value="" style="endArrow=classic;html=1;rounded=0;fontFamily=Open Sans;fontSource=https%3A%2F%2Ffonts.googleapis.com%2Fcss%3Ffamily%3DOpen%2BSans;fontSize=13;exitX=1;exitY=0.3333333333333333;exitDx=0;exitDy=0;exitPerimeter=0;entryX=0;entryY=0.5;entryDx=0;entryDy=0;" parent="1OBQYQIUP6oZaAc2y_LA-1" source="mzEIMfMMCoD7IkeZDwDo-0" target="O8qXiJtw2eGrAZmjT_0R-8" edge="1"><mxGeometry width="50" height="50" relative="1" as="geometry"><mxPoint x="190" y="316.66666666666674" as="sourcePoint"/><mxPoint x="370.16805388678927" y="327.40970978012547" as="targetPoint"/></mxGeometry></mxCell><mxCell id="mzEIMfMMCoD7IkeZDwDo-3" value="gestion de taches" style="ellipse;whiteSpace=wrap;html=1;fontFamily=Open Sans;verticalAlign=middle;fontSource=https%3A%2F%2Ffonts.googleapis.com%2Fcss%3Ffamily%3DOpen%2BSans;fillColor=#d5e8d4;strokeColor=#82b366;" parent="1OBQYQIUP6oZaAc2y_LA-1" vertex="1"><mxGeometry x="700" y="180" width="90" height="60" as="geometry"/></mxCell><mxCell id="mzEIMfMMCoD7IkeZDwDo-4" value="évènements" style="ellipse;whiteSpace=wrap;html=1;fontFamily=Open Sans;verticalAlign=middle;fontSource=https%3A%2F%2Ffonts.googleapis.com%2Fcss%3Ffamily%3DOpen%2BSans;fillColor=#d5e8d4;strokeColor=#82b366;" parent="1OBQYQIUP6oZaAc2y_LA-1" vertex="1"><mxGeometry x="700" y="290" width="90" height="60" as="geometry"/></mxCell><mxCell id="mzEIMfMMCoD7IkeZDwDo-5" value="gestion de taches" style="ellipse;whiteSpace=wrap;html=1;fontFamily=Open Sans;verticalAlign=middle;fontSource=https%3A%2F%2Ffonts.googleapis.com%2Fcss%3Ffamily%3DOpen%2BSans;fillColor=#d5e8d4;strokeColor=#82b366;" parent="1OBQYQIUP6oZaAc2y_LA-1" vertex="1"><mxGeometry x="700" y="400" width="90" height="60" as="geometry"/></mxCell><mxCell id="WQVlLFC1r0coPAHuCt4i-3" value="" style="endArrow=classic;html=1;rounded=0;fontFamily=Open Sans;fontSource=https%3A%2F%2Ffonts.googleapis.com%2Fcss%3Ffamily%3DOpen%2BSans;fontSize=13;entryX=0;entryY=0.5;entryDx=0;entryDy=0;dashed=1;" parent="1OBQYQIUP6oZaAc2y_LA-1" source="WQVlLFC1r0coPAHuCt4i-4" target="mzEIMfMMCoD7IkeZDwDo-3" edge="1"><mxGeometry width="50" height="50" relative="1" as="geometry"><mxPoint x="640" y="340" as="sourcePoint"/><mxPoint x="710" y="285" as="targetPoint"/></mxGeometry></mxCell><mxCell id="mzEIMfMMCoD7IkeZDwDo-6" style="edgeStyle=orthogonalEdgeStyle;rounded=0;orthogonalLoop=1;jettySize=auto;html=1;fontFamily=Open Sans;fontSource=https%3A%2F%2Ffonts.googleapis.com%2Fcss%3Ffamily%3DOpen%2BSans;fontSize=14;dashed=1;" parent="1OBQYQIUP6oZaAc2y_LA-1" source="O8qXiJtw2eGrAZmjT_0R-7" target="mzEIMfMMCoD7IkeZDwDo-4" edge="1"><mxGeometry relative="1" as="geometry"/></mxCell><mxCell id="mzEIMfMMCoD7IkeZDwDo-7" style="edgeStyle=orthogonalEdgeStyle;rounded=0;orthogonalLoop=1;jettySize=auto;html=1;fontFamily=Open Sans;fontSource=https%3A%2F%2Ffonts.googleapis.com%2Fcss%3Ffamily%3DOpen%2BSans;fontSize=14;dashed=1;" parent="1OBQYQIUP6oZaAc2y_LA-1" source="O8qXiJtw2eGrAZmjT_0R-8" target="mzEIMfMMCoD7IkeZDwDo-5" edge="1"><mxGeometry relative="1" as="geometry"/></mxCell><mxCell id="mzEIMfMMCoD7IkeZDwDo-9" value="" style="endArrow=classic;html=1;rounded=0;fontFamily=Open Sans;fontSource=https%3A%2F%2Ffonts.googleapis.com%2Fcss%3Ffamily%3DOpen%2BSans;fontSize=13;dashed=1;" parent="1OBQYQIUP6oZaAc2y_LA-1" edge="1"><mxGeometry width="50" height="50" relative="1" as="geometry"><mxPoint x="280" y="719.5" as="sourcePoint"/><mxPoint x="380" y="719.5" as="targetPoint"/></mxGeometry></mxCell><mxCell id="mzEIMfMMCoD7IkeZDwDo-10" value="lien, redirection" style="text;html=1;strokeColor=none;fillColor=none;align=center;verticalAlign=middle;whiteSpace=wrap;rounded=0;fontFamily=Open Sans;fontSource=https%3A%2F%2Ffonts.googleapis.com%2Fcss%3Ffamily%3DOpen%2BSans;fontSize=14;" parent="1OBQYQIUP6oZaAc2y_LA-1" vertex="1"><mxGeometry x="300" y="679.5" width="60" height="30" as="geometry"/></mxCell><mxCell id="matBXxHZdA8SX7NsOUGB-0" value="Cas d'usage" style="ellipse;whiteSpace=wrap;html=1;fontFamily=Open Sans;verticalAlign=middle;fontSource=https%3A%2F%2Ffonts.googleapis.com%2Fcss%3Ffamily%3DOpen%2BSans;fillColor=#fff2cc;strokeColor=#d6b656;" vertex="1" parent="1OBQYQIUP6oZaAc2y_LA-1"><mxGeometry x="450" y="670" width="90" height="60" as="geometry"/></mxCell><mxCell id="matBXxHZdA8SX7NsOUGB-1" value="zone/page" style="ellipse;whiteSpace=wrap;html=1;fontFamily=Open Sans;verticalAlign=middle;fontSource=https%3A%2F%2Ffonts.googleapis.com%2Fcss%3Ffamily%3DOpen%2BSans;fillColor=#d5e8d4;strokeColor=#82b366;" vertex="1" parent="1OBQYQIUP6oZaAc2y_LA-1"><mxGeometry x="610" y="670" width="90" height="60" as="geometry"/></mxCell><mxCell id="matBXxHZdA8SX7NsOUGB-2" value="&lt;u style=&quot;font-size: 18px;&quot;&gt;Légende&lt;/u&gt; :" style="text;html=1;align=center;verticalAlign=middle;resizable=0;points=[];autosize=1;strokeColor=none;fillColor=none;fontSize=18;" vertex="1" parent="1OBQYQIUP6oZaAc2y_LA-1"><mxGeometry x="95" y="660" width="100" height="30" as="geometry"/></mxCell></root></mxGraphModel></diagram><diagram id="abMPPKh5dlIdJmRYoxNy" name="3. chat"><mxGraphModel dx="1375" dy="766" grid="1" gridSize="10" guides="1" tooltips="1" connect="1" arrows="1" fold="1" page="1" pageScale="1" pageWidth="827" pageHeight="1169" math="0" shadow="0"><root><mxCell id="RaduN4FEJv7Jgq1yJ2gZ-0"/><mxCell id="RaduN4FEJv7Jgq1yJ2gZ-1" parent="RaduN4FEJv7Jgq1yJ2gZ-0"/><mxCell id="y9w4QqAYuyESuMywKpjv-0" value="" style="group" parent="RaduN4FEJv7Jgq1yJ2gZ-1" vertex="1" connectable="0"><mxGeometry x="290" y="10" width="430" height="530" as="geometry"/></mxCell><mxCell id="y9w4QqAYuyESuMywKpjv-1" value="" style="shape=folder;fontStyle=1;spacingTop=10;tabWidth=111;tabHeight=24;tabPosition=left;html=1;align=left;verticalAlign=top;" parent="y9w4QqAYuyESuMywKpjv-0" vertex="1"><mxGeometry y="3.51" width="430" height="526.49" as="geometry"/></mxCell><mxCell id="y9w4QqAYuyESuMywKpjv-2" value="&lt;font style=&quot;font-size: 14px&quot;&gt;Chat&lt;/font&gt;" style="text;html=1;strokeColor=none;fillColor=none;align=center;verticalAlign=middle;whiteSpace=wrap;rounded=0;fontFamily=Open Sans;fontSource=https%3A%2F%2Ffonts.googleapis.com%2Fcss%3Ffamily%3DOpen%2BSans;fontSize=14;" parent="y9w4QqAYuyESuMywKpjv-0" vertex="1"><mxGeometry width="110" height="35.1" as="geometry"/></mxCell><mxCell id="vP3g1e_jsOb5a7pWJ1PA-2" style="edgeStyle=orthogonalEdgeStyle;rounded=0;orthogonalLoop=1;jettySize=auto;html=1;fontFamily=Open Sans;fontSource=https%3A%2F%2Ffonts.googleapis.com%2Fcss%3Ffamily%3DOpen%2BSans;fontSize=14;" parent="y9w4QqAYuyESuMywKpjv-0" source="rUhejU6MZNTzj8en0kv2-5" target="vP3g1e_jsOb5a7pWJ1PA-1" edge="1"><mxGeometry relative="1" as="geometry"/></mxCell><mxCell id="rUhejU6MZNTzj8en0kv2-5" value="discussion&lt;br&gt;instantanée" style="ellipse;whiteSpace=wrap;html=1;fontFamily=Open Sans;verticalAlign=middle;fontSource=https%3A%2F%2Ffonts.googleapis.com%2Fcss%3Ffamily%3DOpen%2BSans;fillColor=#d5e8d4;strokeColor=#82b366;" parent="y9w4QqAYuyESuMywKpjv-0" vertex="1"><mxGeometry x="135" y="90" width="90" height="60" as="geometry"/></mxCell><mxCell id="vP3g1e_jsOb5a7pWJ1PA-4" style="edgeStyle=orthogonalEdgeStyle;rounded=0;orthogonalLoop=1;jettySize=auto;html=1;entryX=0;entryY=0.5;entryDx=0;entryDy=0;fontFamily=Open Sans;fontSource=https%3A%2F%2Ffonts.googleapis.com%2Fcss%3Ffamily%3DOpen%2BSans;fontSize=14;" parent="y9w4QqAYuyESuMywKpjv-0" source="rUhejU6MZNTzj8en0kv2-8" target="vP3g1e_jsOb5a7pWJ1PA-3" edge="1"><mxGeometry relative="1" as="geometry"/></mxCell><mxCell id="rUhejU6MZNTzj8en0kv2-8" value="historique&lt;br&gt;conversations" style="ellipse;whiteSpace=wrap;html=1;fontFamily=Open Sans;verticalAlign=middle;fontSource=https%3A%2F%2Ffonts.googleapis.com%2Fcss%3Ffamily%3DOpen%2BSans;fillColor=#d5e8d4;strokeColor=#82b366;" parent="y9w4QqAYuyESuMywKpjv-0" vertex="1"><mxGeometry x="135" y="210" width="90" height="60" as="geometry"/></mxCell><mxCell id="rUhejU6MZNTzj8en0kv2-10" value="Ajouter un contact" style="ellipse;whiteSpace=wrap;html=1;fontFamily=Open Sans;verticalAlign=middle;fontSource=https%3A%2F%2Ffonts.googleapis.com%2Fcss%3Ffamily%3DOpen%2BSans;fillColor=#fff2cc;strokeColor=#d6b656;" parent="y9w4QqAYuyESuMywKpjv-0" vertex="1"><mxGeometry x="290" y="320" width="90" height="60" as="geometry"/></mxCell><mxCell id="rUhejU6MZNTzj8en0kv2-12" value="Supprimer un contact" style="ellipse;whiteSpace=wrap;html=1;fontFamily=Open Sans;verticalAlign=middle;fontSource=https%3A%2F%2Ffonts.googleapis.com%2Fcss%3Ffamily%3DOpen%2BSans;fillColor=#fff2cc;strokeColor=#d6b656;" parent="y9w4QqAYuyESuMywKpjv-0" vertex="1"><mxGeometry x="290" y="420" width="90" height="60" as="geometry"/></mxCell><mxCell id="vP3g1e_jsOb5a7pWJ1PA-1" value="Envoyer un message" style="ellipse;whiteSpace=wrap;html=1;fontFamily=Open Sans;verticalAlign=middle;fontSource=https%3A%2F%2Ffonts.googleapis.com%2Fcss%3Ffamily%3DOpen%2BSans;fillColor=#fff2cc;strokeColor=#d6b656;" parent="y9w4QqAYuyESuMywKpjv-0" vertex="1"><mxGeometry x="290" y="90" width="90" height="60" as="geometry"/></mxCell><mxCell id="vP3g1e_jsOb5a7pWJ1PA-3" value="Basculer entre&lt;br&gt;conversations" style="ellipse;whiteSpace=wrap;html=1;fontFamily=Open Sans;verticalAlign=middle;fontSource=https%3A%2F%2Ffonts.googleapis.com%2Fcss%3Ffamily%3DOpen%2BSans;fillColor=#fff2cc;strokeColor=#d6b656;" parent="y9w4QqAYuyESuMywKpjv-0" vertex="1"><mxGeometry x="290" y="210" width="90" height="60" as="geometry"/></mxCell><mxCell id="Zfv8SsIStOB4ZA1KAw7b-3" value="" style="endArrow=classic;html=1;rounded=0;fontFamily=Open Sans;fontSource=https%3A%2F%2Ffonts.googleapis.com%2Fcss%3Ffamily%3DOpen%2BSans;fontSize=14;entryX=0;entryY=0.5;entryDx=0;entryDy=0;exitX=1;exitY=0.3333333333333333;exitDx=0;exitDy=0;exitPerimeter=0;" parent="RaduN4FEJv7Jgq1yJ2gZ-1" source="vP3g1e_jsOb5a7pWJ1PA-0" target="rUhejU6MZNTzj8en0kv2-10" edge="1"><mxGeometry width="50" height="50" relative="1" as="geometry"><mxPoint x="200" y="460" as="sourcePoint"/><mxPoint x="320" y="370" as="targetPoint"/></mxGeometry></mxCell><mxCell id="Zfv8SsIStOB4ZA1KAw7b-4" value="" style="endArrow=classic;html=1;rounded=0;fontFamily=Open Sans;fontSource=https%3A%2F%2Ffonts.googleapis.com%2Fcss%3Ffamily%3DOpen%2BSans;fontSize=14;exitX=1;exitY=0.3333333333333333;exitDx=0;exitDy=0;exitPerimeter=0;" parent="RaduN4FEJv7Jgq1yJ2gZ-1" source="vP3g1e_jsOb5a7pWJ1PA-0" target="rUhejU6MZNTzj8en0kv2-12" edge="1"><mxGeometry width="50" height="50" relative="1" as="geometry"><mxPoint x="200" y="460" as="sourcePoint"/><mxPoint x="465" y="380" as="targetPoint"/></mxGeometry></mxCell><mxCell id="vP3g1e_jsOb5a7pWJ1PA-0" value="Élève / Tuteur" style="shape=umlActor;verticalLabelPosition=bottom;verticalAlign=top;html=1;outlineConnect=0;fontFamily=Open Sans;fontSource=https%3A%2F%2Ffonts.googleapis.com%2Fcss%3Ffamily%3DOpen%2BSans;" parent="RaduN4FEJv7Jgq1yJ2gZ-1" vertex="1"><mxGeometry x="110" y="260" width="70" height="140" as="geometry"/></mxCell><mxCell id="I-1uV-vL5u1R3E6FGCkU-0" value="" style="endArrow=classic;html=1;rounded=0;fontFamily=Open Sans;fontSource=https%3A%2F%2Ffonts.googleapis.com%2Fcss%3Ffamily%3DOpen%2BSans;fontSize=13;dashed=1;" edge="1" parent="RaduN4FEJv7Jgq1yJ2gZ-1"><mxGeometry width="50" height="50" relative="1" as="geometry"><mxPoint x="280" y="719.5" as="sourcePoint"/><mxPoint x="380" y="719.5" as="targetPoint"/></mxGeometry></mxCell><mxCell id="I-1uV-vL5u1R3E6FGCkU-1" value="lien, redirection" style="text;html=1;strokeColor=none;fillColor=none;align=center;verticalAlign=middle;whiteSpace=wrap;rounded=0;fontFamily=Open Sans;fontSource=https%3A%2F%2Ffonts.googleapis.com%2Fcss%3Ffamily%3DOpen%2BSans;fontSize=14;" vertex="1" parent="RaduN4FEJv7Jgq1yJ2gZ-1"><mxGeometry x="300" y="679.5" width="60" height="30" as="geometry"/></mxCell><mxCell id="I-1uV-vL5u1R3E6FGCkU-2" value="Cas d'usage" style="ellipse;whiteSpace=wrap;html=1;fontFamily=Open Sans;verticalAlign=middle;fontSource=https%3A%2F%2Ffonts.googleapis.com%2Fcss%3Ffamily%3DOpen%2BSans;fillColor=#fff2cc;strokeColor=#d6b656;" vertex="1" parent="RaduN4FEJv7Jgq1yJ2gZ-1"><mxGeometry x="450" y="670" width="90" height="60" as="geometry"/></mxCell><mxCell id="I-1uV-vL5u1R3E6FGCkU-3" value="zone/page" style="ellipse;whiteSpace=wrap;html=1;fontFamily=Open Sans;verticalAlign=middle;fontSource=https%3A%2F%2Ffonts.googleapis.com%2Fcss%3Ffamily%3DOpen%2BSans;fillColor=#d5e8d4;strokeColor=#82b366;" vertex="1" parent="RaduN4FEJv7Jgq1yJ2gZ-1"><mxGeometry x="610" y="670" width="90" height="60" as="geometry"/></mxCell><mxCell id="I-1uV-vL5u1R3E6FGCkU-4" value="&lt;u style=&quot;font-size: 18px;&quot;&gt;Légende&lt;/u&gt; :" style="text;html=1;align=center;verticalAlign=middle;resizable=0;points=[];autosize=1;strokeColor=none;fillColor=none;fontSize=18;" vertex="1" parent="RaduN4FEJv7Jgq1yJ2gZ-1"><mxGeometry x="95" y="660" width="100" height="30" as="geometry"/></mxCell></root></mxGraphModel></diagram><diagram id="5MfhZOpvltxTM3ARevW0" name="4. calendrier"><mxGraphModel dx="1375" dy="766" grid="1" gridSize="10" guides="1" tooltips="1" connect="1" arrows="1" fold="1" page="1" pageScale="1" pageWidth="827" pageHeight="1169" math="0" shadow="0"><root><mxCell id="4CYTl0fOpBRvBrNWKuWK-0"/><mxCell id="4CYTl0fOpBRvBrNWKuWK-1" parent="4CYTl0fOpBRvBrNWKuWK-0"/><mxCell id="w8hVaXaBUIeTjlnxayXR-0" value="" style="shape=folder;fontStyle=1;spacingTop=10;tabWidth=111;tabHeight=24;tabPosition=left;html=1;align=left;verticalAlign=top;" vertex="1" parent="4CYTl0fOpBRvBrNWKuWK-1"><mxGeometry x="290" y="13.51" width="430" height="526.49" as="geometry"/></mxCell><mxCell id="OjBl-M0junSSJN_UIuKY-3" value="Afficher évènements et RDV" style="ellipse;whiteSpace=wrap;html=1;fontFamily=Open Sans;verticalAlign=middle;fontSource=https%3A%2F%2Ffonts.googleapis.com%2Fcss%3Ffamily%3DOpen%2BSans;fillColor=#fff2cc;strokeColor=#d6b656;" parent="4CYTl0fOpBRvBrNWKuWK-1" vertex="1"><mxGeometry x="455" y="186" width="90" height="60" as="geometry"/></mxCell><mxCell id="wuJRlMCa8a_SjmCl2X6g-0" value="Élève / Tuteur" style="shape=umlActor;verticalLabelPosition=bottom;verticalAlign=top;html=1;outlineConnect=0;fontFamily=Open Sans;fontSource=https%3A%2F%2Ffonts.googleapis.com%2Fcss%3Ffamily%3DOpen%2BSans;" parent="4CYTl0fOpBRvBrNWKuWK-1" vertex="1"><mxGeometry x="160" y="170" width="70" height="140" as="geometry"/></mxCell><mxCell id="wuJRlMCa8a_SjmCl2X6g-1" value="" style="endArrow=classic;html=1;rounded=0;fontFamily=Open Sans;fontSource=https%3A%2F%2Ffonts.googleapis.com%2Fcss%3Ffamily%3DOpen%2BSans;fontSize=14;entryX=0;entryY=0.5;entryDx=0;entryDy=0;exitX=1;exitY=0.3333333333333333;exitDx=0;exitDy=0;exitPerimeter=0;" parent="4CYTl0fOpBRvBrNWKuWK-1" source="wuJRlMCa8a_SjmCl2X6g-0" target="OjBl-M0junSSJN_UIuKY-3" edge="1"><mxGeometry width="50" height="50" relative="1" as="geometry"><mxPoint x="270" y="420" as="sourcePoint"/><mxPoint x="320" y="370" as="targetPoint"/></mxGeometry></mxCell><mxCell id="jfPb1MjAhZ14t1kBq3cr-0" value="" style="endArrow=classic;html=1;rounded=0;fontFamily=Open Sans;fontSource=https%3A%2F%2Ffonts.googleapis.com%2Fcss%3Ffamily%3DOpen%2BSans;fontSize=13;dashed=1;" edge="1" parent="4CYTl0fOpBRvBrNWKuWK-1"><mxGeometry width="50" height="50" relative="1" as="geometry"><mxPoint x="280" y="719.5" as="sourcePoint"/><mxPoint x="380" y="719.5" as="targetPoint"/></mxGeometry></mxCell><mxCell id="jfPb1MjAhZ14t1kBq3cr-1" value="lien, redirection" style="text;html=1;strokeColor=none;fillColor=none;align=center;verticalAlign=middle;whiteSpace=wrap;rounded=0;fontFamily=Open Sans;fontSource=https%3A%2F%2Ffonts.googleapis.com%2Fcss%3Ffamily%3DOpen%2BSans;fontSize=14;" vertex="1" parent="4CYTl0fOpBRvBrNWKuWK-1"><mxGeometry x="300" y="679.5" width="60" height="30" as="geometry"/></mxCell><mxCell id="jfPb1MjAhZ14t1kBq3cr-2" value="Cas d'usage" style="ellipse;whiteSpace=wrap;html=1;fontFamily=Open Sans;verticalAlign=middle;fontSource=https%3A%2F%2Ffonts.googleapis.com%2Fcss%3Ffamily%3DOpen%2BSans;fillColor=#fff2cc;strokeColor=#d6b656;" vertex="1" parent="4CYTl0fOpBRvBrNWKuWK-1"><mxGeometry x="450" y="670" width="90" height="60" as="geometry"/></mxCell><mxCell id="jfPb1MjAhZ14t1kBq3cr-3" value="zone/page" style="ellipse;whiteSpace=wrap;html=1;fontFamily=Open Sans;verticalAlign=middle;fontSource=https%3A%2F%2Ffonts.googleapis.com%2Fcss%3Ffamily%3DOpen%2BSans;fillColor=#d5e8d4;strokeColor=#82b366;" vertex="1" parent="4CYTl0fOpBRvBrNWKuWK-1"><mxGeometry x="610" y="670" width="90" height="60" as="geometry"/></mxCell><mxCell id="jfPb1MjAhZ14t1kBq3cr-4" value="&lt;u style=&quot;font-size: 18px;&quot;&gt;Légende&lt;/u&gt; :" style="text;html=1;align=center;verticalAlign=middle;resizable=0;points=[];autosize=1;strokeColor=none;fillColor=none;fontSize=18;" vertex="1" parent="4CYTl0fOpBRvBrNWKuWK-1"><mxGeometry x="95" y="660" width="100" height="30" as="geometry"/></mxCell><mxCell id="2T_wNO2SLocS2Q4SeIGR-0" value="&lt;font style=&quot;font-size: 14px&quot;&gt;Calendrier&lt;/font&gt;" style="text;html=1;strokeColor=none;fillColor=none;align=center;verticalAlign=middle;whiteSpace=wrap;rounded=0;fontFamily=Open Sans;fontSource=https%3A%2F%2Ffonts.googleapis.com%2Fcss%3Ffamily%3DOpen%2BSans;fontSize=14;" vertex="1" parent="4CYTl0fOpBRvBrNWKuWK-1"><mxGeometry x="290" y="10" width="110" height="35.1" as="geometry"/></mxCell></root></mxGraphModel></diagram><diagram id="WcSE28HzE118ru-9Gia1" name="5. gestion de tâches"><mxGraphModel dx="1375" dy="766" grid="1" gridSize="10" guides="1" tooltips="1" connect="1" arrows="1" fold="1" page="1" pageScale="1" pageWidth="827" pageHeight="1169" math="0" shadow="0"><root><mxCell id="CBrr2eyFbl-5ck984wMz-0"/><mxCell id="CBrr2eyFbl-5ck984wMz-1" parent="CBrr2eyFbl-5ck984wMz-0"/><mxCell id="OsAXHrWG7yI2yoVYv5RI-0" value="" style="shape=folder;fontStyle=1;spacingTop=10;tabWidth=140;tabHeight=26;tabPosition=left;html=1;align=left;verticalAlign=top;" vertex="1" parent="CBrr2eyFbl-5ck984wMz-1"><mxGeometry x="290" y="13.51" width="430" height="526.49" as="geometry"/></mxCell><mxCell id="OsAXHrWG7yI2yoVYv5RI-1" value="&lt;font style=&quot;font-size: 14px&quot;&gt;Gestion de tâches&lt;/font&gt;" style="text;html=1;strokeColor=none;fillColor=none;align=center;verticalAlign=middle;whiteSpace=wrap;rounded=0;fontFamily=Open Sans;fontSource=https%3A%2F%2Ffonts.googleapis.com%2Fcss%3Ffamily%3DOpen%2BSans;fontSize=14;" vertex="1" parent="CBrr2eyFbl-5ck984wMz-1"><mxGeometry x="290" y="10" width="130" height="35.1" as="geometry"/></mxCell><mxCell id="f-vBy_yZlUni0X8QA-J0-1" value="Tuteur" style="shape=umlActor;verticalLabelPosition=bottom;verticalAlign=top;html=1;outlineConnect=0;fontFamily=Open Sans;fontSource=https%3A%2F%2Ffonts.googleapis.com%2Fcss%3Ffamily%3DOpen%2BSans;" parent="CBrr2eyFbl-5ck984wMz-1" vertex="1"><mxGeometry x="120" y="400" width="70" height="140" as="geometry"/></mxCell><mxCell id="f-vBy_yZlUni0X8QA-J0-2" value="Élève" style="shape=umlActor;verticalLabelPosition=bottom;verticalAlign=top;html=1;outlineConnect=0;fontFamily=Open Sans;fontSource=https%3A%2F%2Ffonts.googleapis.com%2Fcss%3Ffamily%3DOpen%2BSans;" parent="CBrr2eyFbl-5ck984wMz-1" vertex="1"><mxGeometry x="120" y="120" width="70" height="140" as="geometry"/></mxCell><mxCell id="f-vBy_yZlUni0X8QA-J0-3" value="Liste des tâches" style="ellipse;whiteSpace=wrap;html=1;fontFamily=Open Sans;verticalAlign=middle;fontSource=https%3A%2F%2Ffonts.googleapis.com%2Fcss%3Ffamily%3DOpen%2BSans;fillColor=#d5e8d4;strokeColor=#82b366;" parent="CBrr2eyFbl-5ck984wMz-1" vertex="1"><mxGeometry x="455" y="130" width="90" height="60" as="geometry"/></mxCell><mxCell id="f-vBy_yZlUni0X8QA-J0-4" value="Créer une tâche" style="ellipse;whiteSpace=wrap;html=1;fontFamily=Open Sans;verticalAlign=middle;fontSource=https%3A%2F%2Ffonts.googleapis.com%2Fcss%3Ffamily%3DOpen%2BSans;fillColor=#fff2cc;strokeColor=#d6b656;" parent="CBrr2eyFbl-5ck984wMz-1" vertex="1"><mxGeometry x="500" y="280" width="90" height="60" as="geometry"/></mxCell><mxCell id="j1czhY-13eml8FKOWIFm-0" value="Spécifier&lt;br&gt;élève" style="ellipse;whiteSpace=wrap;html=1;fontFamily=Open Sans;verticalAlign=middle;fontSource=https%3A%2F%2Ffonts.googleapis.com%2Fcss%3Ffamily%3DOpen%2BSans;fillColor=#fff2cc;strokeColor=#d6b656;" parent="CBrr2eyFbl-5ck984wMz-1" vertex="1"><mxGeometry x="390" y="410" width="90" height="60" as="geometry"/></mxCell><mxCell id="j1czhY-13eml8FKOWIFm-1" value="" style="endArrow=classic;html=1;rounded=0;fontFamily=Open Sans;fontSource=https%3A%2F%2Ffonts.googleapis.com%2Fcss%3Ffamily%3DOpen%2BSans;fontSize=14;entryX=0;entryY=0.5;entryDx=0;entryDy=0;exitX=1;exitY=0.3333333333333333;exitDx=0;exitDy=0;exitPerimeter=0;" parent="CBrr2eyFbl-5ck984wMz-1" source="f-vBy_yZlUni0X8QA-J0-1" target="j1czhY-13eml8FKOWIFm-0" edge="1"><mxGeometry width="50" height="50" relative="1" as="geometry"><mxPoint x="270" y="430" as="sourcePoint"/><mxPoint x="320" y="380" as="targetPoint"/></mxGeometry></mxCell><mxCell id="j1czhY-13eml8FKOWIFm-2" value="" style="endArrow=classic;html=1;rounded=0;fontFamily=Open Sans;fontSource=https%3A%2F%2Ffonts.googleapis.com%2Fcss%3Ffamily%3DOpen%2BSans;fontSize=14;entryX=0;entryY=0.5;entryDx=0;entryDy=0;exitX=1;exitY=0.5;exitDx=0;exitDy=0;" parent="CBrr2eyFbl-5ck984wMz-1" source="j1czhY-13eml8FKOWIFm-0" target="f-vBy_yZlUni0X8QA-J0-4" edge="1"><mxGeometry width="50" height="50" relative="1" as="geometry"><mxPoint x="270" y="430" as="sourcePoint"/><mxPoint x="320" y="380" as="targetPoint"/></mxGeometry></mxCell><mxCell id="j1czhY-13eml8FKOWIFm-3" value="" style="endArrow=classic;html=1;rounded=0;fontFamily=Open Sans;fontSource=https%3A%2F%2Ffonts.googleapis.com%2Fcss%3Ffamily%3DOpen%2BSans;fontSize=14;entryX=0;entryY=0.5;entryDx=0;entryDy=0;exitX=1;exitY=0.3333333333333333;exitDx=0;exitDy=0;exitPerimeter=0;" parent="CBrr2eyFbl-5ck984wMz-1" source="f-vBy_yZlUni0X8QA-J0-2" target="f-vBy_yZlUni0X8QA-J0-4" edge="1"><mxGeometry width="50" height="50" relative="1" as="geometry"><mxPoint x="270" y="430" as="sourcePoint"/><mxPoint x="320" y="380" as="targetPoint"/></mxGeometry></mxCell><mxCell id="LaPO_sKABf-MqBaBvuNq-0" value="" style="endArrow=classic;html=1;rounded=0;fontFamily=Open Sans;fontSource=https%3A%2F%2Ffonts.googleapis.com%2Fcss%3Ffamily%3DOpen%2BSans;fontSize=14;exitX=1;exitY=0.3333333333333333;exitDx=0;exitDy=0;exitPerimeter=0;" parent="CBrr2eyFbl-5ck984wMz-1" source="f-vBy_yZlUni0X8QA-J0-1" edge="1"><mxGeometry width="50" height="50" relative="1" as="geometry"><mxPoint x="200" y="456.66666666666674" as="sourcePoint"/><mxPoint x="500" y="310" as="targetPoint"/></mxGeometry></mxCell><mxCell id="LaPO_sKABf-MqBaBvuNq-1" value="Comment formaliser le côté optionnel de &quot;spécifier élève&quot;" style="text;html=1;strokeColor=none;fillColor=none;align=center;verticalAlign=middle;whiteSpace=wrap;rounded=0;fontFamily=Open Sans;fontSource=https%3A%2F%2Ffonts.googleapis.com%2Fcss%3Ffamily%3DOpen%2BSans;fontSize=14;" parent="CBrr2eyFbl-5ck984wMz-1" vertex="1"><mxGeometry x="430" y="480" width="230" height="30" as="geometry"/></mxCell><mxCell id="jptWKuBR0ds8yoM_wfa9-0" value="" style="endArrow=classic;html=1;rounded=0;fontFamily=Open Sans;fontSource=https%3A%2F%2Ffonts.googleapis.com%2Fcss%3Ffamily%3DOpen%2BSans;fontSize=13;dashed=1;" edge="1" parent="CBrr2eyFbl-5ck984wMz-1"><mxGeometry width="50" height="50" relative="1" as="geometry"><mxPoint x="280" y="719.5" as="sourcePoint"/><mxPoint x="380" y="719.5" as="targetPoint"/></mxGeometry></mxCell><mxCell id="jptWKuBR0ds8yoM_wfa9-1" value="lien, redirection" style="text;html=1;strokeColor=none;fillColor=none;align=center;verticalAlign=middle;whiteSpace=wrap;rounded=0;fontFamily=Open Sans;fontSource=https%3A%2F%2Ffonts.googleapis.com%2Fcss%3Ffamily%3DOpen%2BSans;fontSize=14;" vertex="1" parent="CBrr2eyFbl-5ck984wMz-1"><mxGeometry x="300" y="679.5" width="60" height="30" as="geometry"/></mxCell><mxCell id="jptWKuBR0ds8yoM_wfa9-2" value="Cas d'usage" style="ellipse;whiteSpace=wrap;html=1;fontFamily=Open Sans;verticalAlign=middle;fontSource=https%3A%2F%2Ffonts.googleapis.com%2Fcss%3Ffamily%3DOpen%2BSans;fillColor=#fff2cc;strokeColor=#d6b656;" vertex="1" parent="CBrr2eyFbl-5ck984wMz-1"><mxGeometry x="450" y="670" width="90" height="60" as="geometry"/></mxCell><mxCell id="jptWKuBR0ds8yoM_wfa9-3" value="zone/page" style="ellipse;whiteSpace=wrap;html=1;fontFamily=Open Sans;verticalAlign=middle;fontSource=https%3A%2F%2Ffonts.googleapis.com%2Fcss%3Ffamily%3DOpen%2BSans;fillColor=#d5e8d4;strokeColor=#82b366;" vertex="1" parent="CBrr2eyFbl-5ck984wMz-1"><mxGeometry x="610" y="670" width="90" height="60" as="geometry"/></mxCell><mxCell id="jptWKuBR0ds8yoM_wfa9-4" value="&lt;u style=&quot;font-size: 18px;&quot;&gt;Légende&lt;/u&gt; :" style="text;html=1;align=center;verticalAlign=middle;resizable=0;points=[];autosize=1;strokeColor=none;fillColor=none;fontSize=18;" vertex="1" parent="CBrr2eyFbl-5ck984wMz-1"><mxGeometry x="95" y="660" width="100" height="30" as="geometry"/></mxCell></root></mxGraphModel></diagram></mxfile>